# Blender v2.93.0 OBJ File: ''
# www.blender.org
mtllib MisteryCubeNew.mtl
o Cube_Cube.001
v -1.000000 1.000000 1.000000
v 1.000000 1.000000 1.000000
v -1.000000 1.000000 -1.000000
v 1.000000 1.000000 -1.000000
v -1.000000 -1.000000 1.000000
v 1.000000 -1.000000 1.000000
v -1.000000 -1.000000 -1.000000
v 1.000000 -1.000000 -1.000000
v 0.901273 -1.070758 -0.901273
v -0.901273 -1.070758 -0.901273
v -0.901273 -1.070758 0.901273
v 0.901273 -1.070758 0.901273
v -0.894050 0.894051 1.000000
v 0.894051 0.894050 1.000000
v 0.894050 -0.894051 1.000000
v -0.894051 -0.894050 1.000000
v 1.027648 0.874411 0.874411
v 1.027648 0.874411 -0.874411
v 1.027648 -0.874411 -0.874411
v 1.027648 -0.874411 0.874411
v 0.908340 0.908340 -1.046495
v -0.908340 0.908340 -1.046495
v -0.908340 -0.908340 -1.046495
v 0.908340 -0.908340 -1.046495
v -0.882047 1.068837 -0.882047
v -0.882047 1.068837 0.882047
v 0.882047 1.068837 0.882047
v 0.882047 1.068837 -0.882047
v -1.028581 0.886426 -0.886426
v -1.028581 0.886426 0.886426
v -1.028581 -0.886426 -0.886426
v -1.028581 -0.886426 0.886426
vt 0.000000 0.000000
vt 1.000000 0.000000
vt 1.000000 1.000000
vt 0.000000 1.000000
vt 0.000000 0.000000
vt 1.000000 0.000000
vt 1.000000 1.000000
vt 0.000000 1.000000
vt 1.000000 0.000000
vt 1.000000 1.000000
vt 0.000000 1.000000
vt 0.000000 0.000000
vt 1.000000 0.000000
vt 1.000000 1.000000
vt 0.000000 1.000000
vt 0.000000 0.000000
vt 1.000000 0.000000
vt 1.000000 1.000000
vt 0.000000 1.000000
vt 0.000000 0.000000
vt 1.000000 0.000000
vt 1.000000 1.000000
vt 0.000000 1.000000
vt 0.000000 0.000000
vt 1.000000 0.000000
vt 0.000000 1.000000
vt 0.000000 0.000000
vt 1.000000 1.000000
vt 0.000000 1.000000
vt 1.000000 1.000000
vt 0.000000 1.000000
vt 1.000000 1.000000
vt 0.000000 0.000000
vt 1.000000 0.000000
vt 1.000000 1.000000
vt 1.000000 0.000000
vt 0.000000 1.000000
vt 1.000000 1.000000
vt 0.000000 1.000000
vt 1.000000 1.000000
vt 0.000000 1.000000
vt 0.000000 0.000000
vt 1.000000 0.000000
vt 1.000000 1.000000
vt 0.000000 0.000000
vt 0.000000 1.000000
vt 1.000000 1.000000
vt 0.000000 1.000000
vt 1.000000 1.000000
vt 0.000000 1.000000
vt 0.000000 0.000000
vt 1.000000 0.000000
vt 1.000000 1.000000
vt 0.000000 1.000000
vt 1.000000 0.000000
vt 1.000000 1.000000
vt 0.000000 1.000000
vt 0.000000 0.000000
vt 1.000000 1.000000
vt 0.000000 1.000000
vt 0.000000 0.000000
vt 1.000000 0.000000
vt 0.000000 1.000000
vt 1.000000 1.000000
vt 1.000000 1.000000
vt 0.000000 1.000000
vt 1.000000 1.000000
vt 0.000000 1.000000
vt 0.000000 0.000000
vt 1.000000 0.000000
vt 1.000000 1.000000
vt 0.000000 1.000000
vt 1.000000 1.000000
vt 0.000000 1.000000
vt 1.000000 1.000000
vt 0.000000 1.000000
vn 0.5040 0.8637 0.0000
vn -0.0000 -0.4524 -0.8918
vn 0.5825 -0.8128 0.0000
vn 0.0000 0.0000 1.0000
vn -0.9698 0.0000 0.2440
vn 0.9766 -0.2150 0.0000
vn 0.0000 -1.0000 0.0000
vn -0.0000 -0.8128 -0.5825
vn -0.0000 -0.8128 0.5825
vn -0.5825 -0.8128 0.0000
vn 1.0000 0.0000 0.0000
vn 0.9766 0.2150 0.0000
vn 0.9766 -0.0000 0.2150
vn 0.9766 -0.0000 -0.2150
vn 0.0000 0.0000 -1.0000
vn -0.4524 0.0000 -0.8918
vn 0.4524 -0.0000 -0.8918
vn 0.0000 0.4524 -0.8918
vn 0.0000 1.0000 0.0000
vn -0.5040 0.8637 0.0000
vn 0.0000 0.8637 -0.5040
vn 0.0000 0.8637 0.5040
vn -1.0000 0.0000 0.0000
vn -0.9698 0.0000 -0.2440
vn -0.9698 0.2440 0.0000
vn -0.9698 -0.2440 0.0000
usemtl Material.001
s off
f 2/1/1 4/2/1 28/3/1 27/4/1
f 8/5/2 7/6/2 23/7/2 24/8/2
f 8/5/3 6/9/3 12/10/3 9/11/3
f 1/12/4 5/13/4 16/14/4 13/15/4
f 5/16/5 1/17/5 30/18/5 32/19/5
f 6/20/6 8/21/6 19/22/6 20/23/6
f 10/24/7 9/25/7 12/10/7 11/26/7
f 7/27/8 8/21/8 9/28/8 10/29/8
f 6/20/9 5/13/9 11/30/9 12/31/9
f 5/16/10 7/6/10 10/32/10 11/26/10
f 16/33/4 15/34/4 14/35/4 13/15/4
f 6/20/4 2/36/4 14/35/4 15/37/4
f 5/16/4 6/9/4 15/38/4 16/39/4
f 2/1/4 1/17/4 13/40/4 14/41/4
f 19/42/11 18/43/11 17/44/11 20/23/11
f 4/45/12 2/36/12 17/44/12 18/46/12
f 2/1/13 6/9/13 20/47/13 17/48/13
f 8/5/14 4/2/14 18/49/14 19/50/14
f 22/51/15 21/52/15 24/53/15 23/54/15
f 7/27/16 3/55/16 22/56/16 23/54/16
f 4/45/17 8/21/17 24/53/17 21/57/17
f 3/58/18 4/2/18 21/59/18 22/60/18
f 26/61/19 27/62/19 28/3/19 25/63/19
f 3/58/20 1/17/20 26/64/20 25/63/20
f 4/45/21 3/55/21 25/65/21 28/66/21
f 1/12/22 2/36/22 27/67/22 26/68/22
f 29/69/23 31/70/23 32/71/23 30/72/23
f 3/58/24 7/6/24 31/73/24 29/74/24
f 1/12/25 3/55/25 29/75/25 30/72/25
f 7/27/26 5/13/26 32/71/26 31/76/26
